<svg data-v-fde0c5aa="" xmlns="http://www.w3.org/2000/svg" viewBox="0 0 300 300" class="iconLeft"><!----><defs data-v-fde0c5aa=""><!----></defs><rect data-v-fde0c5aa="" fill="transparent" x="0" y="0" width="300px" height="300px" class="logo-background-square"></rect><defs data-v-fde0c5aa=""><!----></defs><g data-v-fde0c5aa="" id="44b62cba-949f-4e2e-b992-598875241874" fill="#000000" transform="matrix(2.4544968605041504,0,0,2.4544968605041504,90.51698449530167,130.10630344646071)"><path d="M0.42 12.29C1.36 12.95 2.62 13.34 3.78 13.34C6.09 13.34 7.21 12.14 7.21 10.53C7.21 9.28 6.31 8.43 5.11 7.92L3.49 7.22C2.80 6.93 2.32 6.58 2.32 5.96C2.32 5.22 2.97 4.65 4.00 4.65C4.72 4.65 5.67 4.94 6.40 5.31C6.71 5.03 6.93 4.56 6.94 4.14C6.22 3.78 5.14 3.42 3.98 3.42C2.10 3.42 0.81 4.61 0.81 6.13C0.81 7.32 1.55 8.05 2.73 8.55L4.38 9.27C5.19 9.62 5.66 10.12 5.66 10.78C5.64 11.55 5.00 12.10 3.86 12.10C2.90 12.10 1.86 11.68 1.05 11.14C0.74 11.40 0.46 11.86 0.42 12.29ZM8.82 10.99C8.82 12.28 9.37 13.29 10.67 13.29C11.56 13.29 12.39 12.84 13.01 12.25C13.19 12.77 13.57 13.15 14.18 13.26C14.42 13.12 14.64 12.80 14.73 12.53C14.42 12.25 14.34 11.75 14.34 11.20L14.34 6.24C14.13 6.22 13.86 6.19 13.61 6.19C13.34 6.19 13.08 6.22 12.88 6.24L12.88 11.13C12.38 11.66 11.68 11.98 11.13 11.98C10.44 11.98 10.26 11.58 10.26 10.64L10.26 7.07C10.26 6.47 10.05 6.16 9.49 6.16C9.14 6.16 8.79 6.29 8.58 6.47C8.76 6.79 8.82 7.24 8.82 7.73ZM16.06 9.79C16.06 11.89 16.87 13.34 18.47 13.34C19.31 13.34 20.02 12.94 20.50 12.39C20.69 12.84 21.04 13.16 21.60 13.26C21.83 13.12 22.06 12.78 22.13 12.52C21.84 12.25 21.74 11.73 21.74 11.19L21.74 3.79C21.74 3.15 21.57 2.87 20.97 2.87L20.43 2.87L20.33 2.95L20.33 6.59C19.85 6.33 19.32 6.13 18.75 6.13C17.40 6.13 16.06 7.29 16.06 9.79ZM18.80 12.14C18.13 12.14 17.53 11.47 17.53 9.80C17.53 8.09 18.16 7.28 18.94 7.28C19.42 7.28 19.89 7.50 20.33 7.78L20.33 11.26C19.89 11.87 19.29 12.14 18.80 12.14ZM29.53 9.70C29.53 8.55 29.27 7.57 28.53 6.83C28.01 6.31 27.33 6.06 26.50 6.06C25.68 6.06 24.99 6.31 24.47 6.83C23.73 7.57 23.48 8.55 23.48 9.70C23.48 10.86 23.73 11.83 24.47 12.57C24.99 13.09 25.68 13.34 26.50 13.34C27.33 13.34 28.01 13.09 28.53 12.57C29.27 11.83 29.53 10.86 29.53 9.70ZM24.98 9.70C24.98 8.41 25.30 7.17 26.50 7.17C27.71 7.17 28.04 8.41 28.04 9.70C28.04 11.00 27.71 12.24 26.50 12.24C25.30 12.24 24.98 11.00 24.98 9.70ZM30.56 12.29C31.50 12.95 32.76 13.34 33.92 13.34C36.23 13.34 37.35 12.14 37.35 10.53C37.35 9.28 36.46 8.43 35.25 7.92L33.63 7.22C32.94 6.93 32.47 6.58 32.47 5.96C32.47 5.22 33.11 4.65 34.15 4.65C34.86 4.65 35.81 4.94 36.54 5.31C36.85 5.03 37.07 4.56 37.09 4.14C36.36 3.78 35.28 3.42 34.12 3.42C32.24 3.42 30.95 4.61 30.95 6.13C30.95 7.32 31.70 8.05 32.87 8.55L34.52 9.27C35.34 9.62 35.80 10.12 35.80 10.78C35.78 11.55 35.14 12.10 34.01 12.10C33.04 12.10 32.00 11.68 31.19 11.14C30.88 11.40 30.60 11.86 30.56 12.29ZM44.59 9.70C44.59 8.55 44.34 7.57 43.60 6.83C43.08 6.31 42.39 6.06 41.57 6.06C40.74 6.06 40.05 6.31 39.54 6.83C38.79 7.57 38.54 8.55 38.54 9.70C38.54 10.86 38.79 11.83 39.54 12.57C40.05 13.09 40.74 13.34 41.57 13.34C42.39 13.34 43.08 13.09 43.60 12.57C44.34 11.83 44.59 10.86 44.59 9.70ZM40.04 9.70C40.04 8.41 40.36 7.17 41.57 7.17C42.77 7.17 43.11 8.41 43.11 9.70C43.11 11.00 42.77 12.24 41.57 12.24C40.36 12.24 40.04 11.00 40.04 9.70ZM48.24 12.08C47.87 12.08 47.70 11.87 47.70 11.45L47.70 3.79C47.70 3.15 47.52 2.87 46.91 2.87L46.37 2.87L46.27 2.95L46.27 11.77C46.27 12.74 46.75 13.22 47.66 13.22C48.03 13.22 48.52 13.17 48.85 13.12C48.87 13.02 48.89 12.91 48.89 12.81C48.89 12.54 48.83 12.28 48.76 12.08ZM52.50 11.98C52.42 11.98 52.40 11.98 52.37 11.87C52.28 11.45 52.05 10.54 51.83 9.84L50.89 6.76C50.78 6.30 50.51 6.15 50.11 6.15C49.87 6.15 49.59 6.22 49.28 6.36L51.21 12.43C51.44 13.12 51.69 13.23 52.26 13.23C52.61 13.23 52.99 13.22 53.31 13.16C53.83 11.62 54.82 8.51 55.47 6.36L55.43 6.30C55.20 6.22 54.95 6.19 54.70 6.19C54.53 6.19 54.35 6.20 54.15 6.24ZM61.57 10.16C61.64 9.77 61.67 9.51 61.67 9.06C61.67 7.39 60.70 6.06 58.90 6.06C56.95 6.06 55.97 7.63 55.97 9.72C55.97 11.61 56.64 13.34 58.86 13.34C59.84 13.34 60.82 13.03 61.49 12.56C61.43 12.26 61.26 11.86 61.03 11.63C60.44 11.94 59.78 12.17 59.08 12.17C57.89 12.17 57.51 11.33 57.46 10.16ZM58.88 7.14C59.89 7.14 60.28 7.95 60.28 8.93L60.28 9.11L57.46 9.11C57.53 7.88 57.99 7.14 58.88 7.14ZM65.41 7.76C65.41 7.97 65.42 8.22 65.42 8.44C65.20 8.44 64.95 8.43 64.74 8.43L63.14 8.43C63.10 8.62 63.08 8.81 63.08 9.04C63.08 9.28 63.10 9.49 63.14 9.67L64.74 9.67C64.95 9.67 65.20 9.66 65.42 9.66C65.42 9.88 65.41 10.14 65.41 10.33L65.41 12.07C65.62 12.11 65.83 12.12 66.08 12.12C66.30 12.12 66.53 12.11 66.72 12.07L66.72 10.33C66.72 10.14 66.71 9.88 66.71 9.66C66.92 9.66 67.17 9.67 67.40 9.67L68.99 9.67C69.03 9.49 69.05 9.28 69.05 9.04C69.05 8.81 69.03 8.64 68.99 8.43L67.40 8.43C67.17 8.43 66.92 8.44 66.71 8.44C66.71 8.22 66.72 7.97 66.72 7.76L66.72 6.03C66.53 5.99 66.30 5.98 66.07 5.98C65.83 5.98 65.62 5.99 65.41 6.03Z"></path></g><defs data-v-fde0c5aa=""><linearGradient data-v-fde0c5aa="" gradientTransform="rotate(25)" id="12e54588-a5bf-44e5-bc40-a5a9503d18e3" x1="0%" y1="0%" x2="100%" y2="0%"><stop data-v-fde0c5aa="" offset="0%" stop-color="#177775" stop-opacity="1"></stop><stop data-v-fde0c5aa="" offset="100%" stop-color="#28D2BF" stop-opacity="1"></stop></linearGradient></defs><g data-v-fde0c5aa="" id="d04dc59d-d118-4690-b735-51817e7450f0" stroke="none" fill="url(#12e54588-a5bf-44e5-bc40-a5a9503d18e3)" transform="matrix(0.42830970883369446,0,0,0.42830970883369446,37.85845149354735,128.58451493547346)"><path d="M66 5H5v90h90V5H66zm-2 2v27H36V7h28zm-7.793 57H36V36h28v20.207L56.207 64zM7 7h27v27H7V7zm0 29h27v28H7V36zm0 57V66h27v27H7zm29 0V66h18.207L43.653 76.554l10.293 10.293L64 76.793V93H36zm57 0H66V74.793L74.793 66H93v27zm0-29H76.793l8.031-8.031-10.293-10.293L66 54.207V36h27v28zM66 34V7h27v27H66z"></path><path d="M75.56 44.647l5.146-5.147 10.292 10.293-5.146 5.146zM42.623 77.584l-1.544 6.69-1.544 6.69 6.691-1.543 6.69-1.544-5.146-5.147z"></path></g><!----></svg> 